<?xml version="1.0" encoding="UTF-8"?>
<svg version="1.1" xmlns="http://www.w3.org/2000/svg" width="330" height="165">
<path d="M0 0 C108.9 0 217.8 0 330 0 C330 54.45 330 108.9 330 165 C221.1 165 112.2 165 0 165 C0 110.55 0 56.1 0 0 Z " fill="#CE1126" transform="translate(0,0)"/>
<path d="M0 0 C108.57 0 217.14 0 329 0 C329 27.39 329 54.78 329 83 C282.37834564 83.32242427 282.37834564 83.32242427 262.80664062 83.390625 C249.30517198 83.43805149 235.80410342 83.49373443 222.30297852 83.60351562 C212.46909784 83.68343914 202.63554246 83.73490975 192.801346 83.75270796 C187.59759557 83.76310646 182.39477546 83.78741539 177.19132423 83.84584045 C172.28516299 83.90047689 167.38030783 83.91682582 162.47387123 83.90486145 C160.68125794 83.90704752 158.88859724 83.92276274 157.09624863 83.9536438 C144.85679151 84.1540314 137.88391591 82.34826808 128 75 C126.00043326 73.7967453 123.98772808 72.61478262 121.95703125 71.46484375 C120.95994141 70.89121094 119.96285156 70.31757812 118.93554688 69.7265625 C117.90494141 69.13617188 116.87433594 68.54578125 115.8125 67.9375 C114.10957218 66.95848887 112.4066462 65.97947453 110.7038269 65.00027466 C108.95604539 63.99552701 107.20779404 62.99160086 105.45947266 61.98779297 C99.96860763 58.8327737 94.48452655 55.66602037 89 52.5 C86.83336859 51.24993888 84.66670186 49.999939 82.5 48.75 C76 45 76 45 69.5 41.25 C68.42733887 40.63116943 67.35467773 40.01233887 66.24951172 39.37475586 C64.08442929 38.12564482 61.91939018 36.87645871 59.75439453 35.62719727 C54.31384294 32.48797691 48.87252784 29.35009437 43.4296875 26.21484375 C38.04072124 23.11016528 32.6541278 20.00141094 27.26953125 16.88916016 C25.02271868 15.59093467 22.7753938 14.29363627 20.52734375 12.99755859 C17.14061425 11.04454674 13.75766386 9.08504586 10.375 7.125 C9.33069824 6.52357178 8.28639648 5.92214355 7.21044922 5.30249023 C6.26186035 4.75149658 5.31327148 4.20050293 4.3359375 3.6328125 C3.49595215 3.14699707 2.6559668 2.66118164 1.79052734 2.16064453 C1.19965332 1.77763184 0.6087793 1.39461914 0 1 C0 0.67 0 0.34 0 0 Z " fill="#0138A7" transform="translate(1,0)"/>
<path d="M0 0 C15.58511556 8.50097212 31.14668194 17.05350542 46.41674805 26.11157227 C52.7283517 29.85347839 59.07992266 33.52432671 65.4375 37.1875 C66.54472412 37.82550537 67.65194824 38.46351074 68.79272461 39.12084961 C71.06337068 40.42889477 73.33412358 41.73675448 75.60498047 43.04443359 C82.14395071 46.81094817 88.67976141 50.58294547 95.21484375 54.35620117 C100.22610149 57.24897397 105.23889962 60.1389356 110.25863647 63.01696777 C112.01728749 64.02548314 113.77533209 65.0350477 115.53320312 66.04492188 C117.72472231 67.30350518 119.91734504 68.56016987 122.11132812 69.81445312 C128.86272402 73.69531332 135.46591135 77.76358632 142 82 C139.16001025 85.06942939 136.40137415 87.09918742 132.73828125 89.1015625 C131.710979 89.66866943 130.68367676 90.23577637 129.62524414 90.82006836 C128.53203857 91.4156958 127.43883301 92.01132324 126.3125 92.625 C124.02527436 93.88793429 121.73881647 95.15225999 119.453125 96.41796875 C118.34001953 97.03333496 117.22691406 97.64870117 116.08007812 98.28271484 C112.20537794 100.44303833 108.37521267 102.67002558 104.5625 104.9375 C97.59267076 109.07379249 90.58498022 113.14121624 83.5625 117.1875 C82.45527588 117.82550537 81.34805176 118.46351074 80.20727539 119.12084961 C77.93662932 120.42889477 75.66587642 121.73675448 73.39501953 123.04443359 C67.92830026 126.1933205 62.46421647 129.34677268 57 132.5 C50.3959188 136.31100738 43.79115028 140.12080186 37.18359375 143.92578125 C34.9348339 145.22124666 32.6861351 146.51681806 30.4375 147.8125 C29.35992432 148.43326416 28.28234863 149.05402832 27.17211914 149.69360352 C20.0226542 153.81776574 12.8957708 157.97822933 5.80834961 162.20825195 C1.10604605 165 1.10604605 165 0 165 C0 110.55 0 56.1 0 0 Z " fill="#FEFDFC" transform="translate(0,0)"/>
<path d="M0 0 C0.99 0.33 1.98 0.66 3 1 C3.495 4.96 3.495 4.96 4 9 C4.33 7.35 4.66 5.7 5 4 C5.66 4.33 6.32 4.66 7 5 C6.03644647 14.41002278 6.03644647 14.41002278 5 19 C6.65 19.33 8.3 19.66 10 20 C12.31 16.7 14.62 13.4 17 10 C17.99 10.33 18.98 10.66 20 11 C17.69 13.97 15.38 16.94 13 20 C15.57633454 17.49523031 17.93401928 15.0899737 20.0625 12.1875 C20.701875 11.465625 21.34125 10.74375 22 10 C23.32 10 24.64 10 26 10 C25.7215625 10.86625 25.7215625 10.86625 25.4375 11.75 C24.7761831 14.30393357 24.7761831 14.30393357 26 18 C22.7 20.31 19.4 22.62 16 25 C16.495 27.97 16.495 27.97 17 31 C17.67546875 30.855625 18.3509375 30.71125 19.046875 30.5625 C19.93890625 30.376875 20.8309375 30.19125 21.75 30 C22.63171875 29.814375 23.5134375 29.62875 24.421875 29.4375 C27 29 27 29 31 29 C31 29.66 31 30.32 31 31 C33.46326712 32.6446674 33.46326712 32.6446674 36 34 C35.34 34.61875 34.68 35.2375 34 35.875 C31.7715451 37.75637427 31.7715451 37.75637427 32 40 C30.06215735 39.85879286 28.12473045 39.71187127 26.1875 39.5625 C25.10855469 39.48128906 24.02960938 39.40007812 22.91796875 39.31640625 C20 39 20 39 17 38 C16.67 39.98 16.34 41.96 16 44 C16.721875 44.4125 17.44375 44.825 18.1875 45.25 C25.67795406 49.91072697 25.67795406 49.91072697 26.6640625 53.24609375 C26.625 55.4375 26.625 55.4375 26 59 C22.53375469 58.71468734 21.23725656 58.24222529 18.76171875 55.71484375 C18.07722656 54.79832031 17.39273438 53.88179687 16.6875 52.9375 C15.99011719 52.01839844 15.29273438 51.09929687 14.57421875 50.15234375 C13.79498047 49.08693359 13.79498047 49.08693359 13 48 C13.42152344 48.62648437 13.84304687 49.25296875 14.27734375 49.8984375 C14.82519531 50.71570313 15.37304688 51.53296875 15.9375 52.375 C16.48277344 53.18710938 17.02804688 53.99921875 17.58984375 54.8359375 C19 57 19 57 20 59 C19.01 59 18.02 59 17 59 C15.40383672 56.74659302 14.12491538 54.38640102 12.79296875 51.96875 C11.08169528 49.64312596 11.08169528 49.64312596 7.80078125 49.71875 C6.41439453 49.85796875 6.41439453 49.85796875 5 50 C5.21398438 50.95261719 5.42796875 51.90523437 5.6484375 52.88671875 C7.58347147 63.00923514 7.58347147 63.00923514 5.796875 66.04296875 C4.125 67.375 4.125 67.375 1 69 C0.01 68.505 0.01 68.505 -1 68 C-1 64.37 -1 60.74 -1 57 C-1.33 59.64 -1.66 62.28 -2 65 C-2.66 65 -3.32 65 -4 65 C-3.67 60.38 -3.34 55.76 -3 51 C-5.31 50.01 -7.62 49.02 -10 48 C-10.68707031 48.7940625 -11.37414062 49.588125 -12.08203125 50.40625 C-12.99174809 51.43788765 -13.90192854 52.4691166 -14.8125 53.5 C-15.26431641 54.02464844 -15.71613281 54.54929688 -16.18164062 55.08984375 C-17.39249865 56.45095423 -18.69240937 57.73153413 -20 59 C-20.99 59 -21.98 59 -23 59 C-23 57.68 -23 56.36 -23 55 C-20.59375 52.640625 -20.59375 52.640625 -17.5 50.25 C-16.4790625 49.45078125 -15.458125 48.6515625 -14.40625 47.828125 C-13.6121875 47.22484375 -12.818125 46.6215625 -12 46 C-12.93972656 46.63228516 -12.93972656 46.63228516 -13.8984375 47.27734375 C-14.71570313 47.82519531 -15.53296875 48.37304688 -16.375 48.9375 C-17.18710937 49.48277344 -17.99921875 50.02804688 -18.8359375 50.58984375 C-21 52 -21 52 -23 53 C-23 52.01 -23 51.02 -23 50 C-21.03125 48.39453125 -21.03125 48.39453125 -18.5 46.8125 C-17.6646875 46.28269531 -16.829375 45.75289062 -15.96875 45.20703125 C-15.3190625 44.80871094 -14.669375 44.41039062 -14 44 C-14.495 41.525 -14.495 41.525 -15 39 C-19.62 39.33 -24.24 39.66 -29 40 C-29 39.34 -29 38.68 -29 38 C-26.03 37.505 -26.03 37.505 -23 37 C-23.63808594 36.95101562 -24.27617187 36.90203125 -24.93359375 36.8515625 C-25.75988281 36.77679688 -26.58617187 36.70203125 -27.4375 36.625 C-28.26121094 36.55539063 -29.08492187 36.48578125 -29.93359375 36.4140625 C-30.61550781 36.27742188 -31.29742188 36.14078125 -32 36 C-32.33 35.34 -32.66 34.68 -33 34 C-32 32 -32 32 -29 31 C-29 30.34 -29 29.68 -29 29 C-27.0412957 29.14076315 -25.08303907 29.2877676 -23.125 29.4375 C-21.48917969 29.55931641 -21.48917969 29.55931641 -19.8203125 29.68359375 C-17 30 -17 30 -15 31 C-14.67 29.02 -14.34 27.04 -14 25 C-18.455 22.03 -18.455 22.03 -23 19 C-22.67 18.01 -22.34 17.02 -22 16 C-19.03 18.31 -16.06 20.62 -13 23 C-15.50476969 20.42366546 -17.9100263 18.06598072 -20.8125 15.9375 C-21.534375 15.298125 -22.25625 14.65875 -23 14 C-23 12.68 -23 11.36 -23 10 C-18.70772058 10.46269985 -16.97077935 12.90159458 -14.25 16.0625 C-13.45078125 16.98160156 -12.6515625 17.90070313 -11.828125 18.84765625 C-11.22484375 19.55792969 -10.6215625 20.26820312 -10 21 C-9.4225 20.67 -8.845 20.34 -8.25 20 C-6 19 -6 19 -2 19 C-2.33 17.824375 -2.66 16.64875 -3 15.4375 C-3.9969533 11.4988324 -4.16869203 8.04860871 -4 4 C-3.34 4 -2.68 4 -2 4 C-1.34 2.68 -0.68 1.36 0 0 Z " fill="#FCD21F" transform="translate(50,48)"/>
<path d="M0 0 C0.66 0 1.32 0 2 0 C2.33 1.32 2.66 2.64 3 4 C5.31 4 7.62 4 10 4 C9.505 4.53625 9.01 5.0725 8.5 5.625 C6.62510456 8.59358445 6.76498575 10.55312427 7 14 C5.63875 13.690625 5.63875 13.690625 4.25 13.375 C0.88972103 12.9872755 -0.24075815 13.19588033 -3 15 C-2.9071875 13.6078125 -2.9071875 13.6078125 -2.8125 12.1875 C-2.69105736 9.01604897 -2.69105736 9.01604897 -4.5 7.125 C-4.995 6.75375 -5.49 6.3825 -6 6 C-5 5 -5 5 -2.4375 4.9375 C-1.2309375 4.9684375 -1.2309375 4.9684375 0 5 C0 3.35 0 1.7 0 0 Z " fill="#FCD62F" transform="translate(11,135)"/>
<path d="M0 0 C0.9075 0.185625 1.815 0.37125 2.75 0.5625 C5.68314324 0.95734621 7.2644657 0.94691572 10 0 C9.773125 0.9075 9.54625 1.815 9.3125 2.75 C8.67394455 5.99503501 8.67394455 5.99503501 10.4375 8.375 C10.953125 8.91125 11.46875 9.4475 12 10 C9.69 10 7.38 10 5 10 C4.67 11.32 4.34 12.64 4 14 C3.34 14 2.68 14 2 14 C2 12.35 2 10.7 2 9 C0.35 9 -1.3 9 -3 9 C-3.33 8.34 -3.66 7.68 -4 7 C-3.01 6.34 -2.02 5.68 -1 5 C-0.27034634 2.43717258 -0.27034634 2.43717258 0 0 Z " fill="#FCD52D" transform="translate(9,16)"/>
<path d="M0 0 C-0.185625 0.5775 -0.37125 1.155 -0.5625 1.75 C-1.04372783 4.22488597 -0.67787733 5.60985476 0 8 C-1.24054448 9.01170618 -2.4928702 10.00897797 -3.75 11 C-4.44609375 11.556875 -5.1421875 12.11375 -5.859375 12.6875 C-8 14 -8 14 -12 14 C-12.33 13.01 -12.66 12.02 -13 11 C-11.26953125 8.30078125 -11.26953125 8.30078125 -8.8125 5.3125 C-8.01457031 4.31863281 -7.21664062 3.32476562 -6.39453125 2.30078125 C-4 0 -4 0 0 0 Z " fill="#FCD426" transform="translate(76,58)"/>
<path d="M0 0 C0.33 0 0.66 0 1 0 C1.061875 0.78375 1.12375 1.5675 1.1875 2.375 C1.455625 3.24125 1.72375 4.1075 2 5 C4.47636012 6.37466625 4.47636012 6.37466625 7 7 C5 9 5 9 2 10 C1.67 11.65 1.34 13.3 1 15 C0.01 14.34 -0.98 13.68 -2 13 C-2 12.34 -2 11.68 -2 11 C-3.98 11.33 -5.96 11.66 -8 12 C-7.814375 11.071875 -7.62875 10.14375 -7.4375 9.1875 C-6.75876119 5.98656229 -6.75876119 5.98656229 -8 3 C-5.03 3.495 -5.03 3.495 -2 4 C-1.34 2.68 -0.68 1.36 0 0 Z " fill="#FCD322" transform="translate(119,75)"/>
<path d="M0 0 C0.66 0 1.32 0 2 0 C4.74657196 4.11985794 5.49549388 8.06079112 5 13 C3.23425307 15.44072664 1.62466996 16.39305921 -1 18 C-1.66 17.67 -2.32 17.34 -3 17 C-2.88556397 14.9160597 -2.75804453 12.83283507 -2.625 10.75 C-2.55539063 9.58984375 -2.48578125 8.4296875 -2.4140625 7.234375 C-2.03751692 4.29305666 -1.5225877 2.50050989 0 0 Z " fill="#FCD52D" transform="translate(52,99)"/>
<path d="M0 0 C2.29141286 -0.05384521 4.58318188 -0.09272087 6.875 -0.125 C8.78925781 -0.15980469 8.78925781 -0.15980469 10.7421875 -0.1953125 C14 0 14 0 16 2 C12.99686252 3.50156874 10.20932478 3.09281204 6.875 3.0625 C5.59367187 3.05347656 4.31234375 3.04445313 2.9921875 3.03515625 C1.51105469 3.01775391 1.51105469 3.01775391 0 3 C0 2.01 0 1.02 0 0 Z " fill="#FCD119" transform="translate(18,81)"/>
<path d="M0 0 C5.02692063 0.45699278 8.14896261 2.99241748 12 6 C11.67 7.32 11.34 8.64 11 10 C9.72390677 9.09066991 8.45434447 8.17217147 7.1875 7.25 C6.47980469 6.73953125 5.77210937 6.2290625 5.04296875 5.703125 C2.97022309 3.97517642 1.52624146 2.21473524 0 0 Z " fill="#FDE991" transform="translate(64,93)"/>
<path d="M0 0 C0.33 0 0.66 0 1 0 C1 5.61 1 11.22 1 17 C0.01 16.67 -0.98 16.34 -2 16 C-2.33 11.71 -2.66 7.42 -3 3 C-2.34 3 -1.68 3 -1 3 C-0.67 2.01 -0.34 1.02 0 0 Z " fill="#FDE681" transform="translate(49,49)"/>
<path d="M0 0 C1.95917659 0.0868748 3.91741871 0.19504512 5.875 0.3125 C7.51082031 0.39951172 7.51082031 0.39951172 9.1796875 0.48828125 C10.11039063 0.65714844 11.04109375 0.82601562 12 1 C12.66 1.99 13.32 2.98 14 4 C8.39 4 2.78 4 -3 4 C-2.01 3.34 -1.02 2.68 0 2 C0 1.34 0 0.68 0 0 Z " fill="#FDE789" transform="translate(21,77)"/>
<path d="M0 0 C-0.39175273 2.43931365 -0.7372236 3.73170598 -2.48828125 5.51953125 C-3.09027344 5.94621094 -3.69226563 6.37289062 -4.3125 6.8125 C-5.20388672 7.47185547 -5.20388672 7.47185547 -6.11328125 8.14453125 C-8.48204164 9.21856546 -9.60093031 8.86324141 -12 8 C-10.57084149 6.65772954 -9.13137328 5.32642904 -7.6875 4 C-6.48673828 2.88625 -6.48673828 2.88625 -5.26171875 1.75 C-3 0 -3 0 0 0 Z " fill="#FDE98F" transform="translate(76,63)"/>
<path d="M0 0 C5.28 0 10.56 0 16 0 C15.34 1.32 14.68 2.64 14 4 C12.04082341 3.9131252 10.08258129 3.80495488 8.125 3.6875 C6.48917969 3.60048828 6.48917969 3.60048828 4.8203125 3.51171875 C3.88960938 3.34285156 2.95890625 3.17398438 2 3 C1.34 2.01 0.68 1.02 0 0 Z " fill="#FDE78A" transform="translate(68,84)"/>
<path d="M0 0 C0 0.66 0 1.32 0 2 C0.99 2.66 1.98 3.32 3 4 C-2.28 4 -7.56 4 -13 4 C-11 1 -11 1 -7.625 0.3125 C-4 0 -4 0 0 0 Z " fill="#FDE788" transform="translate(81,77)"/>
<path d="M0 0 C3 2 3 2 3.65234375 4.27734375 C3.74644531 5.15519531 3.84054688 6.03304687 3.9375 6.9375 C4.04964844 7.81277344 4.16179688 8.68804687 4.27734375 9.58984375 C4.14005859 10.78287109 4.14005859 10.78287109 4 12 C2.68 12.99 1.36 13.98 0 15 C0 10.05 0 5.1 0 0 Z " fill="#FDE992" transform="translate(53,100)"/>
<path d="M0 0 C0.66 0.66 1.32 1.32 2 2 C-3.445 5.96 -3.445 5.96 -9 10 C-9.33 9.01 -9.66 8.02 -10 7 C-6.7 4.69 -3.4 2.38 0 0 Z " fill="#FCDA46" transform="translate(37,91)"/>
<path d="M0 0 C0.99 0.33 1.98 0.66 3 1 C0.36 4.63 -2.28 8.26 -5 12 C-5.33 11.01 -5.66 10.02 -6 9 C-4.78515625 6.73828125 -4.78515625 6.73828125 -3.0625 4.3125 C-2.49660156 3.50425781 -1.93070312 2.69601563 -1.34765625 1.86328125 C-0.90292969 1.24839844 -0.45820312 0.63351563 0 0 Z " fill="#FCD93F" transform="translate(67,58)"/>
<path d="M0 0 C3.26008643 3.16952847 6.22237877 6.39937989 9 10 C8.01 10 7.02 10 6 10 C4.39453125 8.3203125 4.39453125 8.3203125 2.8125 6.125 C2.01779297 5.04605469 2.01779297 5.04605469 1.20703125 3.9453125 C0 2 0 2 0 0 Z " fill="#FEF6D4" transform="translate(62,95)"/>
<path d="M0 0 C0.66 0.33 1.32 0.66 2 1 C-0.97 3.64 -3.94 6.28 -7 9 C-7.66 8.34 -8.32 7.68 -9 7 C-6.03 4.69 -3.06 2.38 0 0 Z " fill="#FEF6D5" transform="translate(37,93)"/>
<path d="M0 0 C0 3.39593478 -0.52165948 4.06619881 -2.5 6.6875 C-2.9640625 7.31011719 -3.428125 7.93273437 -3.90625 8.57421875 C-4.2671875 9.04472656 -4.628125 9.51523438 -5 10 C-5.66 9.67 -6.32 9.34 -7 9 C-4.69 6.03 -2.38 3.06 0 0 Z " fill="#FCD737" transform="translate(40,97)"/>
<path d="M0 0 C4.20626034 1.50223584 5.73900021 4.28550034 8 8 C7.67 8.66 7.34 9.32 7 10 C5.83043409 8.52312468 4.66441854 7.04343707 3.5 5.5625 C2.8503125 4.73878906 2.200625 3.91507813 1.53125 3.06640625 C0 1 0 1 0 0 Z " fill="#FCD737" transform="translate(33,58)"/>
</svg>
